<svg width="32" height="32" viewBox="0 0 32 32" fill="none" xmlns="http://www.w3.org/2000/svg">
  <rect width="32" height="32" rx="8" fill="#2563eb"/>
  <path d="M16 8C14.8954 8 14 8.89543 14 10V14C14 15.1046 14.8954 16 16 16C17.1046 16 18 15.1046 18 14V10C18 8.89543 17.1046 8 16 8Z" fill="white"/>
  <path d="M12 12C10.8954 12 10 12.8954 10 14V18C10 19.1046 10.8954 20 12 20C13.1046 20 14 19.1046 14 18V14C14 12.8954 13.1046 12 12 12Z" fill="white" opacity="0.8"/>
  <path d="M20 12C18.8954 12 18 12.8954 18 14V18C18 19.1046 18.8954 20 20 20C21.1046 20 22 19.1046 22 18V14C22 12.8954 21.1046 12 20 12Z" fill="white" opacity="0.8"/>
  <path d="M16 18C14.8954 18 14 18.8954 14 20V22C14 23.1046 14.8954 24 16 24C17.1046 24 18 23.1046 18 22V20C18 18.8954 17.1046 18 16 18Z" fill="white" opacity="0.6"/>
</svg>